<svg width="162" height="162" viewBox="0 0 162 162" fill="none" xmlns="http://www.w3.org/2000/svg">
<circle cx="81" cy="81" r="81" fill="#FFE2EB"/>
<path d="M75.543 27.8263C75.543 27.8263 72.4024 10.7493 80.4856 10.4195C88.5688 10.0897 83.5953 13.0784 92.2139 7.59563C100.833 2.11284 113.446 3.78242 118.996 12.7383C124.547 21.6942 124.526 36.5555 124.526 36.5555C124.526 36.5555 116.628 40.5645 105.003 33.0824C93.3775 25.6002 87.8995 23.034 85.3767 25.7857C81.4638 30.0421 80.4856 30.0112 80.4856 30.0112C80.4856 30.0112 77.623 28.2179 75.543 27.8263Z" fill="black"/>
<path d="M25.798 84.066C36.3937 70.0911 50.0784 45.4082 77.8701 51.6743C80.0634 55.9925 87.5287 65.8347 98.042 65.1339C112.046 64.2064 111.15 56.5284 124.052 68.133C136.954 79.7375 135.863 118.519 135.863 118.519C135.863 118.519 124.279 122.126 113.735 117.602C111.243 123.59 103.664 141.728 104.9 158.496C104.982 161.979 37.3101 160.619 35.4875 160.969C33.665 161.32 36.8159 146.294 34.4887 142.522C32.1616 138.75 29.4329 140.079 29.4329 140.079C29.4329 140.079 29.505 135.441 30.2361 135.287C30.9671 135.132 63.1042 124.064 80.8357 114.747C98.5671 105.43 105.229 103.421 102.532 94.3617C99.8337 85.3027 84.7176 90.9298 76.5109 94.0732C68.3042 97.2165 41.9438 108.893 41.9438 108.893L44.4769 99.7724C44.4769 99.7724 32.4705 99.1231 22.0808 90.8886C24.377 86.1375 25.798 84.0763 25.798 84.0763V84.066Z" fill="#D1325D"/>
<path d="M68.9219 47.4901C68.9219 47.4901 56.8023 45.1506 48.472 49.5101C40.1417 53.8695 16.994 86.3643 16.994 86.3643C16.994 86.3643 28.9386 99.5663 45.9802 99.8137C52.3231 87.9824 57.173 81.0155 57.173 81.0155" stroke="black" stroke-width="2" stroke-linecap="round" stroke-linejoin="round"/>
<path d="M117.586 40.8015C113.107 62.3823 104.91 68.2773 90.7517 63.7015C78.4056 59.7131 74.3279 42.7906 74.3279 42.7906C74.3279 42.7906 68.3248 37.483 71.1462 31.6704C73.9675 25.8578 77.7157 27.7335 80.4753 30.0112C86.4064 28.8466 83.7497 21.2098 92.2036 25.8578C100.657 30.5059 116.124 41.8012 126.802 35.494C126.802 35.494 126.276 14.0266 118.41 7.34827C110.543 0.669985 96.1062 -2.52487 88.2186 7.43072C73.9572 2.7518 68.5616 11.8314 72.9996 28.9703" stroke="black" stroke-width="2" stroke-linecap="round" stroke-linejoin="round"/>
<path d="M116.762 57.7343C116.762 57.7343 132.383 67.5249 135.441 74.0074C138.499 80.4899 140.981 116.839 140.981 116.839C140.981 116.839 127.924 122.693 115.073 118.138" stroke="black" stroke-width="2" stroke-linecap="round" stroke-linejoin="round"/>
<path d="M122.94 88.7966C122.94 88.7966 121.571 101.112 118.08 108.471C114.589 115.829 103.582 135.586 105.023 159.99" stroke="black" stroke-width="2" stroke-linecap="round" stroke-linejoin="round"/>
<path d="M133.083 125.043C133.083 125.043 133.052 137.74 133.114 144.552C133.175 151.364 138.653 159.99 138.653 159.99" stroke="black" stroke-width="2" stroke-linecap="round" stroke-linejoin="round"/>
<path d="M108.37 132.123C108.37 132.123 110.79 153.724 113.189 160.918" stroke="black" stroke-width="2" stroke-linecap="round" stroke-linejoin="round"/>
<path d="M21.7101 94.6091C11.8456 112.676 8.29308 133.597 22.3897 135.761C36.4863 137.925 75.0899 116.994 92.7184 109.202C106.063 103.297 106.156 89.7756 94.2836 89.4458C82.4111 89.116 33.181 112.676 33.181 112.676" stroke="black" stroke-width="2" stroke-linecap="round" stroke-linejoin="round"/>
<path d="M29.8448 135.4C29.8448 135.4 28.0428 155.136 28.2796 160.969" stroke="black" stroke-width="2" stroke-linecap="round" stroke-linejoin="round"/>
<path d="M79.775 85.2307C79.775 85.2307 74.9972 83.0665 70.3944 80.9022" stroke="white" stroke-width="2" stroke-linecap="round" stroke-linejoin="round"/>
<path d="M86.2416 82.6749L78.282 68.4629" stroke="white" stroke-width="2" stroke-linecap="round" stroke-linejoin="round"/>
<path d="M95.5294 82.6748L96.693 72.5028" stroke="white" stroke-width="2" stroke-linecap="round" stroke-linejoin="round"/>
<path d="M103.335 85.9521L112.447 74.3373" stroke="white" stroke-width="2" stroke-linecap="round" stroke-linejoin="round"/>
<path d="M105.034 106.873L110.779 110.027" stroke="white" stroke-width="2" stroke-linecap="round" stroke-linejoin="round"/>
<path d="M97.8463 112.676L106.146 121.312" stroke="white" stroke-width="2" stroke-linecap="round" stroke-linejoin="round"/>
<path d="M92.2653 117.973L94.2732 125.434" stroke="white" stroke-width="2" stroke-linecap="round" stroke-linejoin="round"/>
<path d="M85.2221 119.859L82.2566 132.123" stroke="white" stroke-width="2" stroke-linecap="round" stroke-linejoin="round"/>
<path d="M44.2812 99.8137L41.9541 108.574" stroke="black" stroke-width="2" stroke-linecap="round" stroke-linejoin="round"/>
</svg>
