<svg width="162" height="162" viewBox="0 0 162 162" fill="none" xmlns="http://www.w3.org/2000/svg">
<circle cx="81" cy="81" r="81" fill="#FFE2EB"/>
<g clip-path="url(#clip0_134_580)">
<path d="M53.24 117.27C56.89 112.27 39.82 89.71 34.99 84.56C30.16 79.41 20.71 86.02 14 92.22V116.431C14 128.713 27.9543 135.79 37.8632 128.532L53.24 117.27Z" fill="#D1325D"/>
<path d="M90.6001 66.65C90.3501 66.35 89.8501 66.63 89.5301 66.59C87.2001 66.33 84.4301 64.23 82.1201 60.98C79.8101 57.73 78.7401 54.43 79.2501 52.16C80.2001 47.97 84.7601 38.79 84.9501 38.4L85.2601 37.78L85.9501 37.72C86.0201 37.72 86.6801 37.67 88.5601 37.67C89.9001 37.67 91.5201 37.69 93.3801 37.74C98.3101 37.87 102.88 40.93 105.15 41.24C105.76 41.32 106.33 41.57 106.8 41.97C107.61 42.65 110.32 44.9 113.79 47.79L119.24 56.74C119.24 56.74 133.69 71.06 136.09 74.76C138.24 78.07 140.25 79.96 138.09 81.46C135.93 82.96 131.25 82.79 127.31 78.26C124.94 75.53 124.03 75.42 124.03 75.42C124.03 75.42 128.17 81.53 128.76 85.14C129.35 88.75 127.89 91.12 125.64 92.2C123.39 93.28 119.38 92.37 116.4 88.27C116.32 88.16 116.24 88.05 116.16 87.94C116.57 89.04 116.83 90.02 116.83 90.74C116.79 94.11 115.05 95.99 112.8 96.55C110.55 97.1101 107 95.5601 104.93 91.3C103.28 87.9 100.23 82.45 100.23 82.45C100.23 82.45 94.0801 70.86 90.5701 66.64L90.6001 66.65Z" fill="white"/>
<path d="M46.42 63.22C46.42 63.22 68.73 26.9 71.7901 22.96C73.7401 20.44 75.24 25.54 79.59 25.72C83.95 25.9 110.8 29.24 112.12 29.36C113.44 29.48 115.89 31.2 117.34 32.39C118.79 33.58 142.01 54.41 144.75 56.83C149.83 61.3 144.56 69.7 138.83 65.2C135.95 62.87 112.73 43.8 109.23 40.88C108.94 40.64 108.58 40.48 108.2 40.43C106.02 40.13 98.23 39.11 93.35 38.98C87.62 38.83 86.0501 38.96 86.0501 38.96C86.0501 38.96 81.38 48.36 80.45 52.45C79.52 56.54 85.4101 64.9 89.6601 65.38C93.9001 65.86 103.91 62.66 109.02 60.13L117.78 76.73C112.33 78.32 107.56 79.58 107.56 79.58C105.65 80.18 104 80.68 102.57 81.13C98.2801 82.48 95.99 83.38 94.7 85.33C92.15 89.19 87.99 97.34 82.21 101.49C73.79 107.53 57.5801 107.87 57.5801 107.87L33.8 74.69L46.41 63.22H46.42Z" fill="white"/>
<path d="M38.42 70.5L46.42 63.23C46.42 63.23 68.73 26.9 71.79 22.96C73.74 20.44 76.24 20.54 80.59 20.72C84.95 20.9 111.8 24.24 113.12 24.36C114.44 24.48 116.89 26.2 118.34 27.39C119.79 28.58 143.32 49.1 145.75 51.83C148.18 54.56 151.72 58.4 149.21 62.74C146.53 67.39 141.84 67.64 138.83 65.2C135.95 62.87 112.73 43.8 109.23 40.88C108.94 40.64 108.58 40.48 108.2 40.43C106.02 40.13 98.23 39.11 93.35 38.98" stroke="black" stroke-width="2" stroke-linecap="round" stroke-linejoin="round"/>
<path d="M126.16 73.72C122.45 75.07 107.56 79.58 107.56 79.58C105.65 80.18 104 80.68 102.57 81.13C98.28 82.48 95.99 83.38 94.7 85.33C92.15 89.19 87.99 97.34 82.21 101.49C73.79 107.53 57.58 107.87 57.58 107.87" stroke="black" stroke-width="2" stroke-linecap="round" stroke-linejoin="round"/>
<path d="M86.06 38.96C86.06 38.96 81.39 48.36 80.46 52.45C79.53 56.54 85.42 64.9 89.67 65.38C93.91 65.86 103.92 62.66 109.03 60.13" stroke="black" stroke-width="2" stroke-linecap="round" stroke-linejoin="round"/>
<path d="M116.19 87.95C116.6 89.05 116.86 90.03 116.86 90.75C116.82 94.12 115.08 96 112.83 96.56C110.58 97.12 107.03 95.57 104.96 91.31C103.31 87.91 100.26 82.46 100.26 82.46" stroke="black" stroke-width="2" stroke-linecap="round" stroke-linejoin="round"/>
<path d="M124.05 75.4399C124.05 75.4399 128.19 81.5499 128.78 85.1599C129.37 88.7699 127.91 91.1399 125.66 92.2199" stroke="black" stroke-width="2" stroke-linecap="round" stroke-linejoin="round"/>
<path d="M135.2 68.54L139.33 72.72C141.48 76.03 140.28 79.97 138.12 81.47C135.96 82.97 131.28 82.8 127.34 78.27" stroke="black" stroke-width="2" stroke-linecap="round" stroke-linejoin="round"/>
<path d="M14 83.5L31.3 71.2L60.5 111.95L27 136" stroke="black" stroke-width="2" stroke-linecap="round" stroke-linejoin="round"/>
<path d="M112.64 58.58C112.64 58.58 108.92 52.66 106.35 51.21C103.78 49.76 99.42 47.02 99.42 47.02" stroke="black" stroke-width="2" stroke-linecap="round" stroke-linejoin="round"/>
<path d="M111.53 78.37L114.4 84.56" stroke="black" stroke-width="2" stroke-linecap="round" stroke-linejoin="round"/>
<path d="M102.47 62.7799C102.47 62.7799 97.33 56.42 92.17 54.7" stroke="black" stroke-width="2" stroke-linecap="round" stroke-linejoin="round"/>
<path d="M142.15 21.27H125.63V95.1C125.63 99.66 129.33 103.36 133.89 103.36C138.45 103.36 142.15 99.66 142.15 95.1V21.27Z" fill="white" stroke="black" stroke-width="2" stroke-linecap="round" stroke-linejoin="round"/>
<path d="M142.36 15H125.42C123.691 15 122.29 16.4013 122.29 18.13V18.14C122.29 19.8687 123.691 21.27 125.42 21.27H142.36C144.089 21.27 145.49 19.8687 145.49 18.14V18.13C145.49 16.4013 144.089 15 142.36 15Z" fill="white" stroke="black" stroke-width="2" stroke-linecap="round" stroke-linejoin="round"/>
<path d="M133.84 100.64C130.79 100.64 128.31 98.15 128.31 95.1V42.59C128.32 42.12 128.71 41.73 129.18 41.73H138.53C139 41.73 139.39 42.11 139.39 42.59V95.11C139.39 98.16 136.9 100.64 133.85 100.64H133.84Z" fill="#D1325D"/>
<path d="M116.85 56.9301C120.51 55.1101 121.69 54.4701 125.95 54.4401C128.69 54.4201 134.38 54.4001 136.33 61.0301C137.23 64.0701 136.63 66.5301 135.19 68.5501C133.33 71.1701 129.36 72.2601 126.15 73.7301C126.15 73.7301 108.77 60.2601 109.06 60.1101L116.84 56.9401L116.85 56.9301Z" fill="white"/>
<path d="M109.02 60.12C109.02 60.12 121.69 54.4601 125.95 54.4301C128.69 54.4101 134.38 54.39 136.33 61.0201C137.23 64.0601 136.63 66.5201 135.19 68.5401C133.33 71.1601 129.46 72.5101 126.15 73.7201" stroke="black" stroke-width="2" stroke-linecap="round" stroke-linejoin="round"/>
</g>
<defs>
<clipPath id="clip0_134_580">
<rect width="138.08" height="133" fill="white" transform="translate(13 14)"/>
</clipPath>
</defs>
</svg>
