<svg width="166" height="162" viewBox="0 0 166 162" fill="none" xmlns="http://www.w3.org/2000/svg">
<circle cx="81" cy="81" r="81" fill="#FFE2EB"/>
<g clip-path="url(#clip0_134_579)">
<path d="M135.9 40.8101H153.51C156.88 40.8101 159.62 43.5501 159.62 46.9201V53.9201H129.79V46.9201C129.79 43.5501 132.53 40.8101 135.9 40.8101Z" fill="#D1325D"/>
<path d="M31.55 42.9301H103.52C108.24 42.9301 112.07 46.7601 112.07 51.4801V100.05H23V51.4801C23 46.7601 26.83 42.9301 31.55 42.9301Z" fill="white"/>
<path d="M86.95 58.5901C84.13 54.8901 79.14 53.5901 74.88 55.4601C73.03 56.2601 71.37 57.6101 70.03 59.4001C68.69 57.6101 67.04 56.2601 65.18 55.4601C60.92 53.5901 55.93 54.8901 53.11 58.5901C51.67 60.4801 50.9 62.8501 50.9 65.4301C50.9 69.1401 53.12 73.2201 57.48 77.5501C61.04 81.0701 65.25 83.9601 67.44 85.3701C69.02 86.3801 71.03 86.3801 72.61 85.3701C74.8 83.9601 79.01 81.0801 82.57 77.5501C86.94 73.2201 89.15 69.1501 89.15 65.4301C89.15 62.8501 88.39 60.4801 86.94 58.5901H86.95Z" fill="white"/>
<path d="M82.35 60.62C79.94 57.45 75.67 56.34 72.01 57.94C70.42 58.63 69.01 59.78 67.86 61.31C66.71 59.77 65.3 58.62 63.71 57.94C60.06 56.34 55.79 57.45 53.37 60.62C52.13 62.24 51.48 64.27 51.48 66.48C51.48 69.66 53.38 73.15 57.12 76.86C60.17 79.88 63.77 82.35 65.65 83.55C67 84.41 68.73 84.41 70.08 83.55C71.95 82.35 75.56 79.87 78.61 76.86C82.35 73.16 84.25 69.66 84.25 66.48C84.25 64.27 83.6 62.24 82.36 60.62H82.35Z" fill="#D1325D"/>
<path d="M129.79 53.92H159.62V55.92C159.62 59.29 156.88 62.03 153.51 62.03H135.9C132.53 62.03 129.79 59.29 129.79 55.92V53.92Z" fill="white"/>
<path d="M153.49 77.51L156.51 62.02H136.9L140.98 82.91C141.51 85.65 143.92 87.63 146.71 87.63C149.5 87.63 151.9 85.65 152.44 82.91" stroke="black" stroke-width="2" stroke-linecap="round" stroke-linejoin="round"/>
<path d="M117.07 92.5101V46.4801C117.07 41.7801 113.22 37.9301 108.52 37.9301H31.55C26.85 37.9301 23 41.7801 23 46.4801V105.51C23 110.21 26.85 114.06 31.55 114.06H108.52C113.22 114.06 117.07 110.21 117.07 105.51V99.5101" stroke="black" stroke-width="2" stroke-linecap="round" stroke-linejoin="round"/>
<path d="M23 99.5101H128.22C131.62 99.5101 134.38 102.27 134.38 105.67V130.28C134.38 133.68 137.14 136.44 140.54 136.44C143.94 136.44 146.7 133.68 146.7 130.28V88.3601" stroke="black" stroke-width="2" stroke-linecap="round" stroke-linejoin="round"/>
<path d="M86.95 58.5901C84.13 54.8901 79.14 53.5901 74.88 55.4601C73.03 56.2601 71.37 57.6101 70.03 59.4001C68.69 57.6101 67.04 56.2601 65.18 55.4601C60.92 53.5901 55.93 54.8901 53.11 58.5901C51.67 60.4801 50.9 62.8501 50.9 65.4301C50.9 69.1401 53.12 73.2201 57.48 77.5501C61.04 81.0701 65.25 83.9601 67.44 85.3701C69.02 86.3801 71.03 86.3801 72.61 85.3701C74.8 83.9601 79.01 81.0801 82.57 77.5501C86.94 73.2201 89.15 69.1501 89.15 65.4301C89.15 62.8501 88.39 60.4801 86.94 58.5901H86.95Z" stroke="black" stroke-width="2" stroke-linecap="round" stroke-linejoin="round"/>
<path d="M80.1401 114.05H59.9301V129.12H80.1401V114.05Z" stroke="black" stroke-width="2" stroke-linecap="round" stroke-linejoin="round"/>
<path d="M50.91 129.12H97.54" stroke="black" stroke-width="2" stroke-linecap="round" stroke-linejoin="round"/>
<path d="M42.53 129.12H46.73" stroke="black" stroke-width="2" stroke-linecap="round" stroke-linejoin="round"/>
<path d="M157.51 37.38H135.9C132.526 37.38 129.79 40.1155 129.79 43.49V55.91C129.79 59.2845 132.526 62.02 135.9 62.02H157.51C160.884 62.02 163.62 59.2845 163.62 55.91V43.49C163.62 40.1155 160.884 37.38 157.51 37.38Z" stroke="black" stroke-width="2" stroke-linecap="round" stroke-linejoin="round"/>
<path d="M129.79 53.92H163.62" stroke="black" stroke-width="2" stroke-linecap="round" stroke-linejoin="round"/>
<path d="M137.71 27.7701C142.68 22.8001 150.73 22.8001 155.71 27.7701" stroke="black" stroke-width="2" stroke-linecap="round" stroke-linejoin="round"/>
<path d="M128.49 18.5501C138.56 8.48006 154.86 8.48006 164.92 18.5501" stroke="black" stroke-width="2" stroke-linecap="round" stroke-linejoin="round"/>
</g>
<defs>
<clipPath id="clip0_134_579">
<rect width="143.92" height="127.44" fill="white" transform="translate(22 10)"/>
</clipPath>
</defs>
</svg>
