<svg width="162" height="162" viewBox="0 0 162 162" fill="none" xmlns="http://www.w3.org/2000/svg">
<circle cx="81" cy="81" r="81" fill="#FFE2EB"/>
<g clip-path="url(#clip0_7_1206)">
<rect x="36" y="87" width="72" height="52" fill="white"/>
<path d="M89.93 54.1C89.43 53.21 89.17 52.21 89.17 51.19V41.71H56V51.19C56 52.21 55.74 53.21 55.24 54.1L36.76 87.39H108.42L89.93 54.11V54.1Z" fill="#FFB3CB"/>
<path d="M36 138.6V148.79C36 152.1 38.69 154.79 42 154.79H103.18C106.49 154.79 109.18 152.1 109.18 148.79V138.6H36Z" fill="#FFB3CB"/>
<path d="M93.6699 22.98H52.6999C50.3472 22.98 48.4399 24.8872 48.4399 27.24V37.45C48.4399 39.8027 50.3472 41.71 52.6999 41.71H93.6699C96.0227 41.71 97.9299 39.8027 97.9299 37.45V27.24C97.9299 24.8872 96.0227 22.98 93.6699 22.98Z" fill="#D1325D"/>
<path d="M117.18 101.47V90.3C117.18 89.28 116.92 88.28 116.42 87.39L97.93 54.11C97.43 53.22 97.17 52.22 97.17 51.2V41.72H56V51.2C56 52.22 55.74 53.22 55.24 54.11L36.76 87.39C36.26 88.28 36 89.28 36 90.3V148.79C36 152.1 38.69 154.79 42 154.79H111.18C114.49 154.79 117.18 152.1 117.18 148.79" stroke="black" stroke-width="2" stroke-linecap="round" stroke-linejoin="round"/>
<path d="M99.7299 19H53.4399C50.6785 19 48.4399 21.2386 48.4399 24V36.71C48.4399 39.4714 50.6785 41.71 53.4399 41.71H99.7299C102.491 41.71 104.73 39.4714 104.73 36.71V24C104.73 21.2386 102.491 19 99.7299 19Z" stroke="black" stroke-width="2" stroke-linecap="round" stroke-linejoin="round"/>
<path d="M36.76 87.39H116.42" stroke="black" stroke-width="2" stroke-linecap="round" stroke-linejoin="round"/>
<path d="M61.59 54.1H97.93" stroke="black" stroke-width="2" stroke-linecap="round" stroke-linejoin="round"/>
<path d="M36.76 138.6H91.58" stroke="black" stroke-width="2" stroke-linecap="round" stroke-linejoin="round"/>
<path d="M69.29 107.23C68.1855 107.23 67.29 106.335 67.29 105.23V100.05C67.29 98.9454 66.3946 98.05 65.29 98.05H57.29C56.1855 98.05 55.29 98.9454 55.29 100.05V105.23C55.29 106.335 54.3946 107.23 53.29 107.23H48.11C47.0054 107.23 46.11 108.125 46.11 109.23V117.23C46.11 118.335 47.0054 119.23 48.11 119.23H53.29C54.3946 119.23 55.29 120.125 55.29 121.23V126.41C55.29 127.515 56.1855 128.41 57.29 128.41H65.29C66.3946 128.41 67.29 127.515 67.29 126.41V121.23C67.29 120.125 68.1855 119.23 69.29 119.23H74.47C75.5746 119.23 76.47 118.335 76.47 117.23V109.23C76.47 108.125 75.5746 107.23 74.47 107.23H69.29Z" fill="#D1325D"/>
<path d="M113.862 104.801C108.247 99.1851 99.1418 99.1851 93.5261 104.801C87.9104 110.417 87.9104 119.521 93.5261 125.137L118.975 150.586C124.591 156.202 133.696 156.202 139.311 150.586C144.927 144.97 144.927 135.865 139.311 130.25L113.862 104.801Z" fill="white"/>
<path d="M93.1138 107.012L92.7744 107.352C88.0686 112.057 88.0686 119.687 92.7744 124.393L119.722 151.341C124.428 156.047 132.058 156.047 136.764 151.341L137.103 151.001C141.809 146.296 141.809 138.666 137.103 133.96L110.155 107.012C105.449 102.306 97.8196 102.306 93.1138 107.012Z" fill="#D1325D"/>
<path d="M113.862 104.801C108.247 99.1851 99.1418 99.1851 93.5261 104.801C87.9104 110.417 87.9104 119.522 93.5261 125.137L118.975 150.586C124.591 156.202 133.696 156.202 139.311 150.586C144.927 144.97 144.927 135.865 139.311 130.25L113.862 104.801Z" stroke="black" stroke-width="2" stroke-linecap="round" stroke-linejoin="round"/>
<path d="M121.64 122.48L106.25 137.87" stroke="black" stroke-width="2" stroke-linecap="round" stroke-linejoin="round"/>
</g>
<defs>
<clipPath id="clip0_7_1206">
<rect width="109.51" height="137.78" fill="white" transform="translate(35 18)"/>
</clipPath>
</defs>
</svg>
